<svg xmlns="http://www.w3.org/2000/svg" width="860" height="400" viewBox="0 0 860 400">
<style>
 .t { font: 600 14px sans-serif; fill: #111; }
 .ax { font: 11px sans-serif; fill: #555; }
 .val { font: 10px sans-serif; fill: #333; }
 .grid { stroke: #e5e7eb; stroke-width: 1; }
 .cap { font: 11px sans-serif; fill: #777; }
</style>
<rect width="860" height="400" fill="white"/>
<text x="430.0" y="18" text-anchor="middle" class="t">Nemotron 3.5 Lightning 30B-A3B UD-Q4_K_M — 1x B70, f16 KV</text>
<text x="247.5" y="24" text-anchor="middle" class="t">decode tg128 (tok/s)</text>
<line x1="70" y1="348.0" x2="425.0" y2="348.0" class="grid"/>
<text x="62" y="352.0" text-anchor="end" class="ax">0</text>
<line x1="70" y1="304.3" x2="425.0" y2="304.3" class="grid"/>
<text x="62" y="308.3" text-anchor="end" class="ax">10</text>
<line x1="70" y1="260.6" x2="425.0" y2="260.6" class="grid"/>
<text x="62" y="264.6" text-anchor="end" class="ax">20</text>
<line x1="70" y1="216.9" x2="425.0" y2="216.9" class="grid"/>
<text x="62" y="220.9" text-anchor="end" class="ax">30</text>
<line x1="70" y1="173.1" x2="425.0" y2="173.1" class="grid"/>
<text x="62" y="177.1" text-anchor="end" class="ax">40</text>
<line x1="70" y1="129.4" x2="425.0" y2="129.4" class="grid"/>
<text x="62" y="133.4" text-anchor="end" class="ax">50</text>
<line x1="70" y1="85.7" x2="425.0" y2="85.7" class="grid"/>
<text x="62" y="89.7" text-anchor="end" class="ax">60</text>
<line x1="70" y1="42.0" x2="425.0" y2="42.0" class="grid"/>
<text x="62" y="46.0" text-anchor="end" class="ax">70</text>
<text x="70.0" y="366" text-anchor="middle" class="ax">0</text>
<text x="92.2" y="366" text-anchor="middle" class="ax">2k</text>
<text x="114.4" y="366" text-anchor="middle" class="ax">4k</text>
<text x="158.8" y="366" text-anchor="middle" class="ax">8k</text>
<text x="247.5" y="366" text-anchor="middle" class="ax">16k</text>
<text x="336.2" y="366" text-anchor="middle" class="ax">24k</text>
<text x="425.0" y="366" text-anchor="middle" class="ax">32k</text>
<polyline points="70.0,28.8 92.2,31.4 114.4,33.9 158.8,39.0 247.5,48.3 336.2,57.1 425.0,65.5" fill="none" stroke="#2563eb" stroke-width="2.2"/>
<line x1="70.0" y1="28.9" x2="70.0" y2="28.8" stroke="#2563eb" stroke-width="1"/>
<circle cx="70.0" cy="28.8" r="3.2" fill="#2563eb"/>
<text x="70.0" y="20.8" text-anchor="middle" class="val">73</text>
<line x1="92.2" y1="31.5" x2="92.2" y2="31.4" stroke="#2563eb" stroke-width="1"/>
<circle cx="92.2" cy="31.4" r="3.2" fill="#2563eb"/>
<text x="92.2" y="23.4" text-anchor="middle" class="val">72</text>
<line x1="114.4" y1="34.0" x2="114.4" y2="33.9" stroke="#2563eb" stroke-width="1"/>
<circle cx="114.4" cy="33.9" r="3.2" fill="#2563eb"/>
<text x="114.4" y="25.9" text-anchor="middle" class="val">72</text>
<line x1="158.8" y1="39.0" x2="158.8" y2="38.9" stroke="#2563eb" stroke-width="1"/>
<circle cx="158.8" cy="39.0" r="3.2" fill="#2563eb"/>
<text x="158.8" y="31.0" text-anchor="middle" class="val">71</text>
<line x1="247.5" y1="48.4" x2="247.5" y2="48.2" stroke="#2563eb" stroke-width="1"/>
<circle cx="247.5" cy="48.3" r="3.2" fill="#2563eb"/>
<text x="247.5" y="40.3" text-anchor="middle" class="val">69</text>
<line x1="336.2" y1="57.2" x2="336.2" y2="57.0" stroke="#2563eb" stroke-width="1"/>
<circle cx="336.2" cy="57.1" r="3.2" fill="#2563eb"/>
<text x="336.2" y="49.1" text-anchor="middle" class="val">67</text>
<line x1="425.0" y1="65.5" x2="425.0" y2="65.5" stroke="#2563eb" stroke-width="1"/>
<circle cx="425.0" cy="65.5" r="3.2" fill="#2563eb"/>
<text x="425.0" y="57.5" text-anchor="middle" class="val">65</text>
<text x="247.5" y="388" text-anchor="middle" class="ax">context depth (tokens)</text>
<text x="18" y="195.0" class="ax" transform="rotate(-90 18 195.0)" text-anchor="middle">tok/s</text>
<text x="662.5" y="24" text-anchor="middle" class="t">prefill pp2048 (tok/s)</text>
<line x1="485.0" y1="348.0" x2="840.0" y2="348.0" class="grid"/>
<text x="477.0" y="352.0" text-anchor="end" class="ax">0</text>
<line x1="485.0" y1="271.5" x2="840.0" y2="271.5" class="grid"/>
<text x="477.0" y="275.5" text-anchor="end" class="ax">300</text>
<line x1="485.0" y1="195.0" x2="840.0" y2="195.0" class="grid"/>
<text x="477.0" y="199.0" text-anchor="end" class="ax">600</text>
<line x1="485.0" y1="118.5" x2="840.0" y2="118.5" class="grid"/>
<text x="477.0" y="122.5" text-anchor="end" class="ax">900</text>
<line x1="485.0" y1="42.0" x2="840.0" y2="42.0" class="grid"/>
<text x="477.0" y="46.0" text-anchor="end" class="ax">1200</text>
<text x="485.0" y="366" text-anchor="middle" class="ax">0</text>
<text x="507.2" y="366" text-anchor="middle" class="ax">2k</text>
<text x="529.4" y="366" text-anchor="middle" class="ax">4k</text>
<text x="573.8" y="366" text-anchor="middle" class="ax">8k</text>
<text x="662.5" y="366" text-anchor="middle" class="ax">16k</text>
<text x="751.2" y="366" text-anchor="middle" class="ax">24k</text>
<text x="840.0" y="366" text-anchor="middle" class="ax">32k</text>
<polyline points="485.0,26.7 507.2,50.4 529.4,54.0 573.8,55.9 662.5,65.9 751.2,66.8 840.0,88.2" fill="none" stroke="#dc2626" stroke-width="2.2"/>
<line x1="485.0" y1="28.1" x2="485.0" y2="25.2" stroke="#dc2626" stroke-width="1"/>
<circle cx="485.0" cy="26.7" r="3.2" fill="#dc2626"/>
<text x="485.0" y="18.7" text-anchor="middle" class="val">1260</text>
<line x1="507.2" y1="51.3" x2="507.2" y2="49.6" stroke="#dc2626" stroke-width="1"/>
<circle cx="507.2" cy="50.4" r="3.2" fill="#dc2626"/>
<text x="507.2" y="42.4" text-anchor="middle" class="val">1167</text>
<line x1="529.4" y1="54.5" x2="529.4" y2="53.4" stroke="#dc2626" stroke-width="1"/>
<circle cx="529.4" cy="54.0" r="3.2" fill="#dc2626"/>
<text x="529.4" y="46.0" text-anchor="middle" class="val">1153</text>
<line x1="573.8" y1="56.8" x2="573.8" y2="54.9" stroke="#dc2626" stroke-width="1"/>
<circle cx="573.8" cy="55.9" r="3.2" fill="#dc2626"/>
<text x="573.8" y="47.9" text-anchor="middle" class="val">1146</text>
<line x1="662.5" y1="67.1" x2="662.5" y2="64.8" stroke="#dc2626" stroke-width="1"/>
<circle cx="662.5" cy="65.9" r="3.2" fill="#dc2626"/>
<text x="662.5" y="57.9" text-anchor="middle" class="val">1106</text>
<line x1="751.2" y1="67.2" x2="751.2" y2="66.5" stroke="#dc2626" stroke-width="1"/>
<circle cx="751.2" cy="66.8" r="3.2" fill="#dc2626"/>
<text x="751.2" y="58.8" text-anchor="middle" class="val">1103</text>
<line x1="840.0" y1="88.7" x2="840.0" y2="87.6" stroke="#dc2626" stroke-width="1"/>
<circle cx="840.0" cy="88.2" r="3.2" fill="#dc2626"/>
<text x="840.0" y="80.2" text-anchor="middle" class="val">1019</text>
<text x="662.5" y="388" text-anchor="middle" class="ax">context depth (tokens)</text>
<text x="433.0" y="195.0" class="ax" transform="rotate(-90 433.0 195.0)" text-anchor="middle">tok/s</text>
<text x="430.0" y="400" text-anchor="middle" class="cap"></text>
</svg>
