<svg xmlns="http://www.w3.org/2000/svg" width="900" height="460" viewBox="0 0 900 460"><style> .t { font: 600 14px sans-serif; fill: #111; } .ax { font: 11px sans-serif; fill: #555; } .val { font: 600 10px sans-serif; } .grid { stroke: #e5e7eb; stroke-width: 1; } .cap { font: 11px sans-serif; fill: #777; } .lg { font: 12px sans-serif; fill: #333; }</style><rect width="900" height="460" fill="white"/><text x="450.0" y="24" text-anchor="middle" class="t">Qwen3.8-27B Q4_K_M — 1× Arc Pro B70 TP1 — KV f16 vs q8_0 (llama-bench, fa on, 5 reps)</text><text x="260.0" y="46" text-anchor="middle" class="t">decode tg128 (tok/s)</text><line x1="70" y1="390.0" x2="450.0" y2="390.0" class="grid"/><text x="62" y="394.0" text-anchor="end" class="ax">0</text><line x1="70" y1="324.0" x2="450.0" y2="324.0" class="grid"/><text x="62" y="328.0" text-anchor="end" class="ax">6</text><line x1="70" y1="258.0" x2="450.0" y2="258.0" class="grid"/><text x="62" y="262.0" text-anchor="end" class="ax">12</text><line x1="70" y1="192.0" x2="450.0" y2="192.0" class="grid"/><text x="62" y="196.0" text-anchor="end" class="ax">18</text><line x1="70" y1="126.0" x2="450.0" y2="126.0" class="grid"/><text x="62" y="130.0" text-anchor="end" class="ax">24</text><line x1="70" y1="60.0" x2="450.0" y2="60.0" class="grid"/><text x="62" y="64.0" text-anchor="end" class="ax">30</text><text x="70.0" y="408.0" text-anchor="middle" class="ax">0</text><text x="93.8" y="408.0" text-anchor="middle" class="ax">2K</text><text x="117.5" y="408.0" text-anchor="middle" class="ax">4K</text><text x="165.0" y="408.0" text-anchor="middle" class="ax">8K</text><text x="260.0" y="408.0" text-anchor="middle" class="ax">16K</text><text x="355.0" y="408.0" text-anchor="middle" class="ax">24K</text><text x="450.0" y="408.0" text-anchor="middle" class="ax">32K</text><text x="260.0" y="430.0" text-anchor="middle" class="cap">context depth (tokens)</text><text x="24" y="225.0" text-anchor="middle" class="cap" transform="rotate(-90 24 225.0)">tok/s</text><polyline fill="none" stroke="#2563eb" stroke-width="2.5" points="70.0,117.1 93.8,120.9 117.5,123.2 165.0,127.9 260.0,135.9 355.0,143.4 450.0,150.5"/><circle cx="70.0" cy="117.1" r="2.6" fill="#2563eb"/><circle cx="93.8" cy="120.9" r="2.6" fill="#2563eb"/><circle cx="117.5" cy="123.2" r="2.6" fill="#2563eb"/><circle cx="165.0" cy="127.9" r="2.6" fill="#2563eb"/><circle cx="260.0" cy="135.9" r="2.6" fill="#2563eb"/><circle cx="355.0" cy="143.4" r="2.6" fill="#2563eb"/><circle cx="450.0" cy="150.5" r="2.6" fill="#2563eb"/><polyline fill="none" stroke="#dc2626" stroke-width="2.5" stroke-dasharray="6 4" points="70.0,123.0 93.8,143.1 117.5,158.4 165.0,184.5 260.0,226.5 355.0,253.6 450.0,272.7"/><circle cx="70.0" cy="123.0" r="2.6" fill="#dc2626"/><circle cx="93.8" cy="143.1" r="2.6" fill="#dc2626"/><circle cx="117.5" cy="158.4" r="2.6" fill="#dc2626"/><circle cx="165.0" cy="184.5" r="2.6" fill="#dc2626"/><circle cx="260.0" cy="226.5" r="2.6" fill="#dc2626"/><circle cx="355.0" cy="253.6" r="2.6" fill="#dc2626"/><circle cx="450.0" cy="272.7" r="2.6" fill="#dc2626"/><text x="446.0" y="142.5" text-anchor="end" class="val" fill="#2563eb">21.8</text><text x="446.0" y="286.7" text-anchor="end" class="val" fill="#dc2626">10.7</text><text x="680.0" y="46" text-anchor="middle" class="t">prefill pp2048 (tok/s)</text><line x1="490.0" y1="390.0" x2="870.0" y2="390.0" class="grid"/><text x="482.0" y="394.0" text-anchor="end" class="ax">0</text><line x1="490.0" y1="324.0" x2="870.0" y2="324.0" class="grid"/><text x="482.0" y="328.0" text-anchor="end" class="ax">200</text><line x1="490.0" y1="258.0" x2="870.0" y2="258.0" class="grid"/><text x="482.0" y="262.0" text-anchor="end" class="ax">400</text><line x1="490.0" y1="192.0" x2="870.0" y2="192.0" class="grid"/><text x="482.0" y="196.0" text-anchor="end" class="ax">600</text><line x1="490.0" y1="126.0" x2="870.0" y2="126.0" class="grid"/><text x="482.0" y="130.0" text-anchor="end" class="ax">800</text><line x1="490.0" y1="60.0" x2="870.0" y2="60.0" class="grid"/><text x="482.0" y="64.0" text-anchor="end" class="ax">1000</text><text x="490.0" y="408.0" text-anchor="middle" class="ax">0</text><text x="513.8" y="408.0" text-anchor="middle" class="ax">2K</text><text x="537.5" y="408.0" text-anchor="middle" class="ax">4K</text><text x="585.0" y="408.0" text-anchor="middle" class="ax">8K</text><text x="680.0" y="408.0" text-anchor="middle" class="ax">16K</text><text x="775.0" y="408.0" text-anchor="middle" class="ax">24K</text><text x="870.0" y="408.0" text-anchor="middle" class="ax">32K</text><text x="680.0" y="430.0" text-anchor="middle" class="cap">context depth (tokens)</text><text x="444.0" y="225.0" text-anchor="middle" class="cap" transform="rotate(-90 444.0 225.0)">tok/s</text><polyline fill="none" stroke="#2563eb" stroke-width="2.5" points="490.0,117.7 513.8,86.5 537.5,95.4 585.0,109.2 680.0,132.8 775.0,152.6 870.0,169.6"/><circle cx="490.0" cy="117.7" r="2.6" fill="#2563eb"/><circle cx="513.8" cy="86.5" r="2.6" fill="#2563eb"/><circle cx="537.5" cy="95.4" r="2.6" fill="#2563eb"/><circle cx="585.0" cy="109.2" r="2.6" fill="#2563eb"/><circle cx="680.0" cy="132.8" r="2.6" fill="#2563eb"/><circle cx="775.0" cy="152.6" r="2.6" fill="#2563eb"/><circle cx="870.0" cy="169.6" r="2.6" fill="#2563eb"/><polyline fill="none" stroke="#dc2626" stroke-width="2.5" stroke-dasharray="6 4" points="490.0,120.1 513.8,89.0 537.5,97.2 585.0,111.7 680.0,135.2 775.0,155.2 870.0,171.4"/><circle cx="490.0" cy="120.1" r="2.6" fill="#dc2626"/><circle cx="513.8" cy="89.0" r="2.6" fill="#dc2626"/><circle cx="537.5" cy="97.2" r="2.6" fill="#dc2626"/><circle cx="585.0" cy="111.7" r="2.6" fill="#dc2626"/><circle cx="680.0" cy="135.2" r="2.6" fill="#dc2626"/><circle cx="775.0" cy="155.2" r="2.6" fill="#dc2626"/><circle cx="870.0" cy="171.4" r="2.6" fill="#dc2626"/><text x="866.0" y="161.6" text-anchor="end" class="val" fill="#2563eb">667.8</text><text x="866.0" y="185.4" text-anchor="end" class="val" fill="#dc2626">662.6</text><line x1="330.0" y1="444" x2="360.0" y2="444" stroke="#2563eb" stroke-width="2.5"/><text x="366.0" y="448" class="lg">KV f16</text><line x1="460.0" y1="444" x2="490.0" y2="444" stroke="#dc2626" stroke-width="2.5" stroke-dasharray="6 4"/><text x="496.0" y="448" class="lg">KV q8_0</text></svg>
