<svg xmlns="http://www.w3.org/2000/svg" width="860" height="400" viewBox="0 0 860 400">
<style>
 .t { font: 600 14px sans-serif; fill: #111; }
 .ax { font: 11px sans-serif; fill: #555; }
 .val { font: 10px sans-serif; fill: #333; }
 .grid { stroke: #e5e7eb; stroke-width: 1; }
 .cap { font: 11px sans-serif; fill: #777; }
</style>
<rect width="860" height="400" fill="white"/>
<text x="430.0" y="18" text-anchor="middle" class="t">Ornith 1.5 35B-A3B Q4_K_M · ten-feature stack · 1× B70</text>
<text x="247.5" y="24" text-anchor="middle" class="t">decode tg128 (tok/s)</text>
<line x1="70" y1="348.0" x2="425.0" y2="348.0" class="grid"/>
<text x="62" y="352.0" text-anchor="end" class="ax">0</text>
<line x1="70" y1="271.5" x2="425.0" y2="271.5" class="grid"/>
<text x="62" y="275.5" text-anchor="end" class="ax">30</text>
<line x1="70" y1="195.0" x2="425.0" y2="195.0" class="grid"/>
<text x="62" y="199.0" text-anchor="end" class="ax">60</text>
<line x1="70" y1="118.5" x2="425.0" y2="118.5" class="grid"/>
<text x="62" y="122.5" text-anchor="end" class="ax">90</text>
<line x1="70" y1="42.0" x2="425.0" y2="42.0" class="grid"/>
<text x="62" y="46.0" text-anchor="end" class="ax">120</text>
<text x="70.0" y="366" text-anchor="middle" class="ax">0</text>
<text x="92.2" y="366" text-anchor="middle" class="ax">2k</text>
<text x="114.4" y="366" text-anchor="middle" class="ax">4k</text>
<text x="158.8" y="366" text-anchor="middle" class="ax">8k</text>
<text x="247.5" y="366" text-anchor="middle" class="ax">16k</text>
<text x="336.2" y="366" text-anchor="middle" class="ax">24k</text>
<text x="425.0" y="366" text-anchor="middle" class="ax">32k</text>
<polyline points="70.0,2.9 92.2,14.6 114.4,22.3 158.8,38.8 247.5,65.1 336.2,87.2 425.0,105.7" fill="none" stroke="#2563eb" stroke-width="2.2"/>
<line x1="70.0" y1="4.2" x2="70.0" y2="1.5" stroke="#2563eb" stroke-width="1"/>
<circle cx="70.0" cy="2.9" r="3.2" fill="#2563eb"/>
<text x="70.0" y="-5.1" text-anchor="middle" class="val">135</text>
<line x1="92.2" y1="15.4" x2="92.2" y2="13.8" stroke="#2563eb" stroke-width="1"/>
<circle cx="92.2" cy="14.6" r="3.2" fill="#2563eb"/>
<text x="92.2" y="6.6" text-anchor="middle" class="val">131</text>
<line x1="114.4" y1="22.7" x2="114.4" y2="22.0" stroke="#2563eb" stroke-width="1"/>
<circle cx="114.4" cy="22.3" r="3.2" fill="#2563eb"/>
<text x="114.4" y="14.3" text-anchor="middle" class="val">128</text>
<line x1="158.8" y1="39.0" x2="158.8" y2="38.6" stroke="#2563eb" stroke-width="1"/>
<circle cx="158.8" cy="38.8" r="3.2" fill="#2563eb"/>
<text x="158.8" y="30.8" text-anchor="middle" class="val">121</text>
<line x1="247.5" y1="65.4" x2="247.5" y2="64.8" stroke="#2563eb" stroke-width="1"/>
<circle cx="247.5" cy="65.1" r="3.2" fill="#2563eb"/>
<text x="247.5" y="57.1" text-anchor="middle" class="val">111</text>
<line x1="336.2" y1="87.5" x2="336.2" y2="86.9" stroke="#2563eb" stroke-width="1"/>
<circle cx="336.2" cy="87.2" r="3.2" fill="#2563eb"/>
<text x="336.2" y="79.2" text-anchor="middle" class="val">102</text>
<line x1="425.0" y1="105.9" x2="425.0" y2="105.5" stroke="#2563eb" stroke-width="1"/>
<circle cx="425.0" cy="105.7" r="3.2" fill="#2563eb"/>
<text x="425.0" y="97.7" text-anchor="middle" class="val">95</text>
<text x="247.5" y="388" text-anchor="middle" class="ax">context depth (tokens)</text>
<text x="18" y="195.0" class="ax" transform="rotate(-90 18 195.0)" text-anchor="middle">tok/s</text>
<text x="662.5" y="24" text-anchor="middle" class="t">prefill pp2048 (tok/s)</text>
<line x1="485.0" y1="348.0" x2="840.0" y2="348.0" class="grid"/>
<text x="477.0" y="352.0" text-anchor="end" class="ax">0</text>
<line x1="485.0" y1="271.5" x2="840.0" y2="271.5" class="grid"/>
<text x="477.0" y="275.5" text-anchor="end" class="ax">300</text>
<line x1="485.0" y1="195.0" x2="840.0" y2="195.0" class="grid"/>
<text x="477.0" y="199.0" text-anchor="end" class="ax">600</text>
<line x1="485.0" y1="118.5" x2="840.0" y2="118.5" class="grid"/>
<text x="477.0" y="122.5" text-anchor="end" class="ax">900</text>
<line x1="485.0" y1="42.0" x2="840.0" y2="42.0" class="grid"/>
<text x="477.0" y="46.0" text-anchor="end" class="ax">1200</text>
<text x="485.0" y="366" text-anchor="middle" class="ax">0</text>
<text x="507.2" y="366" text-anchor="middle" class="ax">2k</text>
<text x="529.4" y="366" text-anchor="middle" class="ax">4k</text>
<text x="573.8" y="366" text-anchor="middle" class="ax">8k</text>
<text x="662.5" y="366" text-anchor="middle" class="ax">16k</text>
<text x="751.2" y="366" text-anchor="middle" class="ax">24k</text>
<text x="840.0" y="366" text-anchor="middle" class="ax">32k</text>
<polyline points="485.0,-9.2 507.2,10.2 529.4,12.2 573.8,20.7 662.5,37.1 751.2,42.9 840.0,67.0" fill="none" stroke="#dc2626" stroke-width="2.2"/>
<line x1="485.0" y1="0.5" x2="485.0" y2="-18.8" stroke="#dc2626" stroke-width="1"/>
<circle cx="485.0" cy="-9.2" r="3.2" fill="#dc2626"/>
<text x="485.0" y="-17.2" text-anchor="middle" class="val">1401</text>
<line x1="507.2" y1="12.3" x2="507.2" y2="8.1" stroke="#dc2626" stroke-width="1"/>
<circle cx="507.2" cy="10.2" r="3.2" fill="#dc2626"/>
<text x="507.2" y="2.2" text-anchor="middle" class="val">1325</text>
<line x1="529.4" y1="13.4" x2="529.4" y2="11.1" stroke="#dc2626" stroke-width="1"/>
<circle cx="529.4" cy="12.2" r="3.2" fill="#dc2626"/>
<text x="529.4" y="4.2" text-anchor="middle" class="val">1317</text>
<line x1="573.8" y1="23.0" x2="573.8" y2="18.4" stroke="#dc2626" stroke-width="1"/>
<circle cx="573.8" cy="20.7" r="3.2" fill="#dc2626"/>
<text x="573.8" y="12.7" text-anchor="middle" class="val">1284</text>
<line x1="662.5" y1="38.8" x2="662.5" y2="35.3" stroke="#dc2626" stroke-width="1"/>
<circle cx="662.5" cy="37.1" r="3.2" fill="#dc2626"/>
<text x="662.5" y="29.1" text-anchor="middle" class="val">1219</text>
<line x1="751.2" y1="45.0" x2="751.2" y2="40.8" stroke="#dc2626" stroke-width="1"/>
<circle cx="751.2" cy="42.9" r="3.2" fill="#dc2626"/>
<text x="751.2" y="34.9" text-anchor="middle" class="val">1196</text>
<line x1="840.0" y1="67.8" x2="840.0" y2="66.1" stroke="#dc2626" stroke-width="1"/>
<circle cx="840.0" cy="67.0" r="3.2" fill="#dc2626"/>
<text x="840.0" y="59.0" text-anchor="middle" class="val">1102</text>
<text x="662.5" y="388" text-anchor="middle" class="ax">context depth (tokens)</text>
<text x="433.0" y="195.0" class="ax" transform="rotate(-90 433.0 195.0)" text-anchor="middle">tok/s</text>
<text x="430.0" y="400" text-anchor="middle" class="cap"></text>
</svg>
