<svg xmlns="http://www.w3.org/2000/svg" viewBox="0 0 720 320" width="100%" role="img" aria-label="Decode rate vs context — KV f16 vs q8_0 (Q4_K_M, 1x B70 TP1)">
<rect x="0" y="0" width="720" height="320" fill="#f6f1e5"/>
<text x="360.0" y="18" text-anchor="middle" fill="#14120e" font-family="'American Typewriter', 'Courier New', monospace" font-size="12" font-weight="700">Decode rate vs context — KV f16 vs q8_0 (Q4_K_M, 1x B70 TP1)</text>
<line x1="54" y1="262.0" x2="706" y2="262.0" stroke="#c7c0b2" stroke-width="1" stroke-dasharray="3 4"/>
<text x="47" y="265.5" text-anchor="end" fill="#4a463f" font="10px 'American Typewriter', 'Courier New', monospace" font-family="'American Typewriter', 'Courier New', monospace" font-size="10">0</text>
<line x1="54" y1="215.6" x2="706" y2="215.6" stroke="#c7c0b2" stroke-width="1" stroke-dasharray="3 4"/>
<text x="47" y="219.1" text-anchor="end" fill="#4a463f" font="10px 'American Typewriter', 'Courier New', monospace" font-family="'American Typewriter', 'Courier New', monospace" font-size="10">5</text>
<line x1="54" y1="169.2" x2="706" y2="169.2" stroke="#c7c0b2" stroke-width="1" stroke-dasharray="3 4"/>
<text x="47" y="172.7" text-anchor="end" fill="#4a463f" font="10px 'American Typewriter', 'Courier New', monospace" font-family="'American Typewriter', 'Courier New', monospace" font-size="10">10</text>
<line x1="54" y1="122.8" x2="706" y2="122.8" stroke="#c7c0b2" stroke-width="1" stroke-dasharray="3 4"/>
<text x="47" y="126.3" text-anchor="end" fill="#4a463f" font="10px 'American Typewriter', 'Courier New', monospace" font-family="'American Typewriter', 'Courier New', monospace" font-size="10">16</text>
<line x1="54" y1="76.4" x2="706" y2="76.4" stroke="#c7c0b2" stroke-width="1" stroke-dasharray="3 4"/>
<text x="47" y="79.9" text-anchor="end" fill="#4a463f" font="10px 'American Typewriter', 'Courier New', monospace" font-family="'American Typewriter', 'Courier New', monospace" font-size="10">21</text>
<line x1="54" y1="30.0" x2="706" y2="30.0" stroke="#c7c0b2" stroke-width="1" stroke-dasharray="3 4"/>
<text x="47" y="33.5" text-anchor="end" fill="#4a463f" font="10px 'American Typewriter', 'Courier New', monospace" font-family="'American Typewriter', 'Courier New', monospace" font-size="10">26</text>
<line x1="54" y1="262.0" x2="706" y2="262.0" stroke="#14120e" stroke-width="1.6"/>
<line x1="54" y1="30" x2="54" y2="262.0" stroke="#14120e" stroke-width="1.6"/>
<text x="16" y="146.0" text-anchor="middle" transform="rotate(-90 16 146.0)" fill="#4a463f" font-family="'American Typewriter', 'Courier New', monospace" font-size="10.5">decode tok/s</text>
<text x="54.0" y="278.0" text-anchor="middle" fill="#4a463f" font-family="'American Typewriter', 'Courier New', monospace" font-size="10">0</text>
<text x="94.8" y="278.0" text-anchor="middle" fill="#4a463f" font-family="'American Typewriter', 'Courier New', monospace" font-size="10">2K</text>
<text x="135.5" y="278.0" text-anchor="middle" fill="#4a463f" font-family="'American Typewriter', 'Courier New', monospace" font-size="10">4K</text>
<text x="217.0" y="278.0" text-anchor="middle" fill="#4a463f" font-family="'American Typewriter', 'Courier New', monospace" font-size="10">8K</text>
<text x="380.0" y="278.0" text-anchor="middle" fill="#4a463f" font-family="'American Typewriter', 'Courier New', monospace" font-size="10">16K</text>
<text x="543.0" y="278.0" text-anchor="middle" fill="#4a463f" font-family="'American Typewriter', 'Courier New', monospace" font-size="10">24K</text>
<text x="706.0" y="278.0" text-anchor="middle" fill="#4a463f" font-family="'American Typewriter', 'Courier New', monospace" font-size="10">32K</text>
<text x="380.0" y="296.0" text-anchor="middle" fill="#4a463f" font-family="'American Typewriter', 'Courier New', monospace" font-size="10.5">context tokens (how full the prompt is)</text>
<polyline fill="none" stroke="#0f62e8" stroke-width="3" stroke-linejoin="round" stroke-linecap="round" points="54.0,40.6 94.8,43.7 135.5,45.6 217.0,49.4 380.0,55.9 543.0,61.9 706.0,67.7"/>
<circle cx="54.0" cy="40.6" r="3.2" fill="#f6f1e5" stroke="#0f62e8" stroke-width="2"/>
<circle cx="94.8" cy="43.7" r="3.2" fill="#f6f1e5" stroke="#0f62e8" stroke-width="2"/>
<circle cx="135.5" cy="45.6" r="3.2" fill="#f6f1e5" stroke="#0f62e8" stroke-width="2"/>
<circle cx="217.0" cy="49.4" r="3.2" fill="#f6f1e5" stroke="#0f62e8" stroke-width="2"/>
<circle cx="380.0" cy="55.9" r="3.2" fill="#f6f1e5" stroke="#0f62e8" stroke-width="2"/>
<circle cx="543.0" cy="61.9" r="3.2" fill="#f6f1e5" stroke="#0f62e8" stroke-width="2"/>
<circle cx="706.0" cy="67.7" r="3.2" fill="#f6f1e5" stroke="#0f62e8" stroke-width="2"/>
<text x="701.0" y="60.7" text-anchor="end" fill="#0f62e8" font-family="'American Typewriter', 'Courier New', monospace" font-size="10.5" font-weight="700">21.77</text>
<polyline fill="none" stroke="#8b3b14" stroke-width="3" stroke-linejoin="round" stroke-linecap="round" stroke-dasharray="6 4" points="54.0,45.4 94.8,61.7 135.5,74.2 217.0,95.3 380.0,129.4 543.0,151.4 706.0,166.9"/>
<circle cx="54.0" cy="45.4" r="3.2" fill="#f6f1e5" stroke="#8b3b14" stroke-width="2"/>
<circle cx="94.8" cy="61.7" r="3.2" fill="#f6f1e5" stroke="#8b3b14" stroke-width="2"/>
<circle cx="135.5" cy="74.2" r="3.2" fill="#f6f1e5" stroke="#8b3b14" stroke-width="2"/>
<circle cx="217.0" cy="95.3" r="3.2" fill="#f6f1e5" stroke="#8b3b14" stroke-width="2"/>
<circle cx="380.0" cy="129.4" r="3.2" fill="#f6f1e5" stroke="#8b3b14" stroke-width="2"/>
<circle cx="543.0" cy="151.4" r="3.2" fill="#f6f1e5" stroke="#8b3b14" stroke-width="2"/>
<circle cx="706.0" cy="166.9" r="3.2" fill="#f6f1e5" stroke="#8b3b14" stroke-width="2"/>
<text x="701.0" y="180.9" text-anchor="end" fill="#8b3b14" font-family="'American Typewriter', 'Courier New', monospace" font-size="10.5" font-weight="700">10.66</text>
<line x1="54" y1="308" x2="76" y2="308" stroke="#0f62e8" stroke-width="3"/>
<text x="81" y="312" fill="#4a463f" font-family="'American Typewriter', 'Courier New', monospace" font-size="10.5">KV f16 (16-bit)</text>
<line x1="206.0" y1="308" x2="228.0" y2="308" stroke="#8b3b14" stroke-width="3" stroke-dasharray="6 4"/>
<text x="233.0" y="312" fill="#4a463f" font-family="'American Typewriter', 'Courier New', monospace" font-size="10.5">KV q8_0 (8-bit)</text>
</svg>
